#!OML:ASF Y:\EmotionMaleHayes\Project 1\Capture day 1\Session 1\Male1.ASF
:FULLY-SPECIFIED
:DEGREES
1218
root 33.2362 17.831 -3.32675 1059.8 77.5803 1054.27
lowerback 6.29367 3.96094 -4.54327
upperback 7.41894 5.38969 -0.313112
thorax 3.8171 2.5984 2.04141
lowerneck -23.9098 2.87818 3.39126
upperneck 25.3057 4.02047 -3.39309
head 12.5161 1.70639 -1.14282
rclavicle 2.0276e-014 -9.54166e-015
rhumerus 50.0202 14.5579 -30.0474
rradius 42.1199
rwrist -4.70831
rhand 0.667391 -32.7272
rfingers 7.12502
rthumb 26.2295 -60.9346
lclavicle 2.0276e-014 -9.54166e-015
lhumerus 45.9803 -13.7777 22.7402
lradius 41.7911
lwrist 9.17057
lhand -11.034 -20.819
lfingers 7.12502
lthumb 14.9878 8.61858
rfemur 7.92274 -7.17138 2.44064
rtibia 6.23009
rfoot 0.767041 -14.2592
rtoes 28.5992
lfemur 4.53807 -1.93656 -11.7485
ltibia 10.8475
lfoot -13.3344 13.5513
ltoes -6.6027
1219
root 33.3051 17.8322 -3.32275 1060.81 77.5469 1055.39
lowerback 6.2597 3.98886 -4.87328
upperback 7.31434 5.41386 -0.452556
thorax 3.71104 2.60132 2.07539
lowerneck -23.3788 3.09547 3.42438
upperneck 25.0349 4.25974 -3.17978
head 12.309 1.85277 -1.02884
rclavicle -4.77083e-015 1.66979e-014
rhumerus 49.7144 14.6882 -30.0822
rradius 42.3455
rwrist -4.58233
rhand 0.665822 -32.7632
rfingers 7.12502
rthumb 26.228 -60.9708
lclavicle -4.77083e-015 1.66979e-014
lhumerus 46.0339 -13.8915 22.8009
lradius 41.7567
lwrist 9.10882
lhand -11.117 -20.7605
lfingers 7.12502
lthumb 14.9078 8.68302
rfemur 7.94127 -7.21649 2.11229
rtibia 5.88154
rfoot 0.894991 -14.4574
rtoes 28.9348
lfemur 4.93216 -2.0803 -12.1277
ltibia 10.8083
lfoot -13.5254 13.691
ltoes -7.15375
1220
root 33.3667 17.8342 -3.30391 1060.76 77.2733 1055.57
lowerback 6.27697 4.04703 -5.11766
upperback 7.30378 5.4831 -0.497255
thorax 3.67072 2.62733 2.15834
lowerneck -23.9352 2.9868 3.75054
upperneck 25.5413 4.10917 -3.57296
head 12.6324 1.75724 -1.2564
rclavicle 1.35174e-014 -1.51076e-014
rhumerus 49.88 14.7833 -29.9082
rradius 42.3423
rwrist -4.76393
rhand 0.615547 -32.7962
rfingers 7.12502
rthumb 26.1798 -61.0109
lclavicle 1.35174e-014 -1.51076e-014
lhumerus 46.0851 -13.8945 22.7483
lradius 41.7526
lwrist 9.1717
lhand -11.0859 -20.7385
lfingers 7.12502
lthumb 14.9377 8.70281
rfemur 7.69423 -6.51517 2.39315
rtibia 6.00709
rfoot 0.512424 -14.9448
rtoes 28.6503
lfemur 5.42093 -2.08308 -11.9772
ltibia 10.8507
lfoot -13.7857 13.7892
ltoes -6.77584
1221
root 33.4242 17.8344 -3.2968 1059.85 77.0744 1054.83
lowerback 6.3284 4.01957 -5.04405
upperback 7.31581 5.44772 -0.513298
thorax 3.6648 2.61392 2.09972
lowerneck -23.7419 3.0864 3.6557
upperneck 25.3657 4.25247 -3.4669
head 12.5251 1.82795 -1.17532
rclavicle -2.06736e-014 -5.56597e-015
rhumerus 50.0899 14.831 -29.8604
rradius 42.2988
rwrist -4.78832
rhand 0.456353 -32.5651
rfingers 7.12502
rthumb 26.0274 -60.8023
lclavicle -2.06736e-014 -5.56597e-015
lhumerus 46.0406 -13.7539 22.8417
lradius 41.7914
lwrist 9.10321
lhand -10.89 -20.7234
lfingers 7.12502
lthumb 15.1264 8.70378
rfemur 7.5462 -6.52334 2.6771
rtibia 6.03148
rfoot 0.649245 -14.9807
rtoes 28.3652
lfemur 5.81243 -2.13413 -11.7295
ltibia 10.9321
lfoot -13.9281 13.847
ltoes -7.3948
1222
root 33.4871 17.8332 -3.29526 1058.82 76.9735 1053.9
lowerback 6.20712 3.95908 -4.81546
upperback 7.37438 5.38764 -0.531265
thorax 3.81799 2.59071 1.97102
lowerneck -23.934 3.05239 3.63192
upperneck 25.3874 4.26223 -3.6518
head 12.5768 1.80101 -1.23896
rclavicle 1.90833e-014 -5.56597e-015
rhumerus 50.4974 14.7475 -29.5587
rradius 42.1058
rwrist -4.98055
rhand 0.335738 -32.4035
rfingers 7.12502
rthumb 25.9119 -60.6577
lclavicle 1.90833e-014 -5.56597e-015
lhumerus 46.1603 -13.5598 22.9924
lradius 41.7421
lwrist 8.96006
lhand -10.8471 -20.6788
lfingers 7.12502
lthumb 15.1677 8.74528
rfemur 7.37906 -6.81367 2.91077
rtibia 6.08346
rfoot 0.677685 -14.7835
rtoes 28.1812
lfemur 6.20221 -2.30898 -11.579
ltibia 10.9034
lfoot -14.0233 13.9024
ltoes -8.12142
1223
root 33.556 17.8338 -3.27956 1057.35 76.6951 1052.54
lowerback 6.01211 3.98246 -4.6027
upperback 7.45286 5.43908 -0.437388
thorax 4.01397 2.61811 1.96796
lowerneck -24.0698 2.92629 3.50743
upperneck 25.4214 4.11939 -3.63091
head 12.6073 1.72628 -1.23487
rclavicle 3.61788e-014 -7.15625e-015
rhumerus 50.5127 14.5606 -29.5827
rradius 42.1265
rwrist -5.0519
rhand 0.427766 -32.2951
rfingers 7.12502
rthumb 26 -60.5363
lclavicle 3.61788e-014 -7.15625e-015
lhumerus 46.4242 -13.5087 23.0167
lradius 41.6369
lwrist 8.95062
lhand -11.197 -20.5453
lfingers 7.12502
lthumb 14.8307 8.90392
rfemur 7.17857 -6.3559 3.6025
rtibia 6.04104
rfoot 0.367175 -14.9742
rtoes 27.0623
lfemur 6.69992 -2.42585 -11.1129
ltibia 10.8146
lfoot -14.0654 13.9525
ltoes -7.66263
1224
root 33.626 17.8312 -3.27144 1057.49 76.72 1052.79
lowerback 6.00161 3.96189 -4.71668
upperback 7.3403 5.40244 -0.526793
thorax 3.90227 2.59911 1.93517
lowerneck -23.9256 2.97673 3.62146
upperneck 25.4153 4.17527 -3.69627
head 12.5834 1.75612 -1.26997
rclavicle -8.34896e-015 1.74931e-014
rhumerus 50.134 14.5117 -30.0339
rradius 42.3066
rwrist -5.05313
rhand 0.763852 -32.027
rfingers 7.12502
rthumb 26.3218 -60.2205
lclavicle -8.34896e-015 1.74931e-014
lhumerus 46.5021 -13.726 22.9587
lradius 41.6589
lwrist 9.00268
lhand -11.4432 -20.5305
lfingers 7.12502
lthumb 14.5935 8.93606
rfemur 6.94104 -6.64566 3.47192
rtibia 6.15161
rfoot 0.492782 -14.6893
rtoes 25.9108
lfemur 7.06251 -2.51378 -11.2824
ltibia 10.8656
lfoot -14.0703 13.9019
ltoes -7.53188
1225
root 33.6941 17.8261 -3.26803 1059.18 76.8966 1054.61
lowerback 5.95385 3.90732 -5.21646
upperback 7.2467 5.31667 -0.696589
thorax 3.81314 2.54016 2.03712
lowerneck -23.267 3.31607 3.61334
upperneck 24.9007 4.61289 -3.54947
head 12.2644 1.9789 -1.13958
rclavicle -7.15625e-015 6.36111e-015
rhumerus 50.0401 14.6007 -30.1365
rradius 42.4355
rwrist -5.12302
rhand 0.888237 -31.8724
rfingers 7.12502
rthumb 26.4409 -60.0481
lclavicle -7.15625e-015 6.36111e-015
lhumerus 46.4433 -13.8062 23.0379
lradius 41.7259
lwrist 9.00036
lhand -11.398 -20.7411
lfingers 7.12502
lthumb 14.637 8.72228
rfemur 6.72798 -7.22327 2.75042
rtibia 6.245
rfoot 0.821729 -14.4169
rtoes 26.3206
lfemur 7.42928 -2.68375 -12.0011
ltibia 10.8377
lfoot -14.0632 13.9782
ltoes -9.21879
1226
root 33.758 17.8237 -3.24284 1059.7 76.6339 1055.32
lowerback 5.8832 3.95587 -5.61466
upperback 7.23778 5.37411 -0.711119
thorax 3.8101 2.55086 2.24298
lowerneck -23.8318 3.05137 3.57015
upperneck 25.3916 4.2912 -3.65178
head 12.558 1.80985 -1.22422
rclavicle -4.37326e-015 3.97569e-015
rhumerus 50.2787 14.7009 -29.9734
rradius 42.4235
rwrist -5.30075
rhand 0.780071 -31.8925
rfingers 7.12502
rthumb 26.3373 -60.0837
lclavicle -4.37326e-015 3.97569e-015
lhumerus 46.4015 -13.7743 23.0136
lradius 41.8177
lwrist 9.06915
lhand -11.3402 -20.8875
lfingers 7.12502
lthumb 14.6927 8.57187
rfemur 6.49935 -6.44181 2.97246
rtibia 6.10735
rfoot 0.68015 -15.0783
rtoes 27.0539
lfemur 8.00625 -2.82043 -12.0227
ltibia 10.6284
lfoot -13.9884 14.2707
ltoes -11.3225
1227
root 33.8185 17.8216 -3.2161 1059.09 76.3292 1054.93
lowerback 5.8813 4.00493 -5.6963
upperback 7.2679 5.43906 -0.685074
thorax 3.82948 2.57834 2.31338
lowerneck -24.0844 2.78787 3.19006
upperneck 25.455 3.98182 -3.42089
head 12.6048 1.66314 -1.12589
rclavicle 4.41302e-014 -3.89618e-014
rhumerus 50.4699 14.6081 -30.1316
rradius 42.316
rwrist -5.25186
rhand 0.828735 -31.8783
rfingers 7.12502
rthumb 26.3839 -60.0626
lclavicle 4.41302e-014 -3.89618e-014
lhumerus 46.4686 -13.7016 22.9853
lradius 41.8926
lwrist 9.03932
lhand -11.3353 -20.833
lfingers 7.12502
lthumb 14.6975 8.62599
rfemur 6.23886 -5.64111 3.5407
rtibia 6.08879
rfoot 0.324956 -15.6357
rtoes 27.8053
lfemur 8.54421 -2.82792 -11.6705
ltibia 10.6008
lfoot -14.0784 14.3197
ltoes -11.9776
1228
root 33.8793 17.8194 -3.19917 1059.33 76.3183 1055.33
lowerback 5.99706 4.01206 -5.84598
upperback 7.19802 5.43453 -0.797747
thorax 3.69082 2.57735 2.26716
lowerneck -23.7697 2.75727 3.36163
upperneck 25.1949 3.92313 -3.59888
head 12.4451 1.63453 -1.23449
rclavicle 2.90226e-014 -3.97569e-014
rhumerus 50.4499 14.5561 -30.3981
rradius 42.2227
rwrist -5.13359
rhand 0.934592 -31.8702
rfingers 7.12502
rthumb 26.4852 -60.0392
lclavicle 2.90226e-014 -3.97569e-014
lhumerus 46.6588 -13.7778 22.9046
lradius 41.9164
lwrist 8.92594
lhand -11.3272 -20.7391
lfingers 7.12502
lthumb 14.7053 8.71937
rfemur 5.97327 -5.44901 3.58813
rtibia 6.13647
rfoot -0.0288551 -15.6899
rtoes 28.7483
lfemur 8.89061 -2.86194 -11.7538
ltibia 10.7301
lfoot -14.1574 14.2129
ltoes -12.2208
1229
root 33.9485 17.8151 -3.18259 1059.84 76.3308 1056.01
lowerback 5.90395 3.98647 -6.08685
upperback 7.20187 5.40453 -0.883602
thorax 3.73938 2.55254 2.31943
lowerneck -23.6748 2.9528 3.73865
upperneck 25.204 4.2161 -4.08891
head 12.4653 1.73623 -1.43346
rclavicle -9.14409e-015 2.06736e-014
rhumerus 50.5611 14.5594 -30.3267
rradius 42.204
rwrist -5.22793
rhand 0.940518 -31.8727
rfingers 7.12502
rthumb 26.4909 -60.0409
lclavicle -9.14409e-015 2.06736e-014
lhumerus 46.7881 -13.7396 22.9834
lradius 41.8862
lwrist 8.80559
lhand -11.2661 -20.8354
lfingers 7.12502
lthumb 14.7641 8.61873
rfemur 5.75906 -5.35578 3.52211
rtibia 6.07491
rfoot -0.144934 -15.6344
rtoes 29.1255
lfemur 9.35697 -3.02673 -12.0152
ltibia 10.6723
lfoot -14.1766 14.2331
ltoes -12.8045
1230
root 34.0269 17.8067 -3.16448 1059.52 76.2912 1055.86
lowerback 5.78823 3.91557 -6.16136
upperback 7.18491 5.3142 -0.864028
thorax 3.7857 2.50141 2.39237
lowerneck -24.165 2.87658 3.57324
upperneck 25.5464 4.10119 -3.86407
head 12.6834 1.69163 -1.33869
rclavicle -3.97569e-014 -1.59028e-015
rhumerus 50.6801 14.6678 -30.1509
rradius 42.2803
rwrist -5.41791
rhand 0.900185 -31.8376
rfingers 7.12502
rthumb 26.4523 -60.0117
lclavicle -3.97569e-014 -1.59028e-015
lhumerus 46.7378 -13.6874 23.2395
lradius 41.8504
lwrist 8.63094
lhand -11.0939 -21.0207
lfingers 7.12502
lthumb 14.93 8.42124
rfemur 5.62103 -5.45894 3.66829
rtibia 5.96156
rfoot 0.241172 -15.4531
rtoes 28.7088
lfemur 9.99771 -3.29492 -12.0876
ltibia 10.4131
lfoot -14.5036 14.2597
ltoes -12.4594
1231
root 34.1055 17.798 -3.14615 1059.21 76.2922 1055.69
lowerback 5.69743 3.8474 -6.23254
upperback 7.15311 5.22436 -0.842938
thorax 3.80277 2.45162 2.46224
lowerneck -24.0217 2.90538 3.33069
upperneck 25.4096 4.18327 -3.70222
head 12.5937 1.72819 -1.22151
rclavicle -2.06736e-014 -2.70347e-014
rhumerus 50.5484 14.7237 -30.1902
rradius 42.4713
rwrist -5.37857
rhand 0.871292 -31.8271
rfingers 7.12502
rthumb 26.4247 -60.0053
lclavicle -2.06736e-014 -2.70347e-014
lhumerus 46.7344 -13.7188 23.3198
lradius 41.9102
lwrist 8.6245
lhand -10.9928 -21.0349
lfingers 7.12502
lthumb 15.0274 8.39978
rfemur 5.43438 -5.68609 3.79917
rtibia 5.94468
rfoot 0.599337 -15.0226
rtoes 27.4438
lfemur 10.5734 -3.49543 -12.1459
ltibia 10.2034
lfoot -14.6232 14.2754
ltoes -13.1954
1232
root 34.1769 17.7924 -3.12441 1060.05 76.357 1056.72
lowerback 5.64295 3.83151 -6.54152
upperback 7.17991 5.20793 -0.959187
thorax 3.85227 2.43167 2.51776
lowerneck -23.8853 2.89844 3.11992
upperneck 25.221 4.21168 -3.58764
head 12.4845 1.73768 -1.1378
rclavicle 1.94809e-014 3.18055e-015
rhumerus 50.6558 14.5929 -30.3057
rradius 42.3743
rwrist -5.25722
rhand 0.903614 -31.8587
rfingers 7.12502
rthumb 26.4556 -60.0322
lclavicle 1.94809e-014 3.18055e-015
lhumerus 46.9234 -13.763 23.1431
lradius 42.0428
lwrist 8.89612
lhand -10.9855 -21.0275
lfingers 7.12502
lthumb 15.0345 8.40664
rfemur 5.17776 -5.6394 3.67127
rtibia 6.05017
rfoot 0.546497 -14.7844
rtoes 27.2239
lfemur 11.0679 -3.62686 -12.4896
ltibia 10.1229
lfoot -14.4098 14.3836
ltoes -15.5274
